<svg width="1148" height="267" viewBox="0 0 1148 267" fill="none" xmlns="http://www.w3.org/2000/svg">
<g clip-path="url(#clip0_734:17)">
<path d="M56.5039 157.985C56.1095 157.985 55.724 157.869 55.396 157.65C55.0681 157.431 54.8125 157.119 54.6616 156.755C54.5107 156.391 54.4712 155.99 54.5481 155.604C54.6251 155.217 54.815 154.862 55.0939 154.583C55.3727 154.304 55.7281 154.114 56.1149 154.038C56.5017 153.961 56.9026 154 57.267 154.151C57.6314 154.302 57.9428 154.557 58.1619 154.885C58.3811 155.213 58.498 155.598 58.498 155.992C58.4976 156.521 58.2874 157.028 57.9135 157.401C57.5397 157.775 57.0327 157.985 56.5039 157.985Z" fill="#FF5D24"/>
<path d="M70.1281 157.985C69.7337 157.985 69.3482 157.869 69.0202 157.65C68.6923 157.431 68.4367 157.119 68.2858 156.755C68.1348 156.391 68.0953 155.99 68.1723 155.604C68.2492 155.217 68.4392 154.862 68.718 154.583C68.9969 154.304 69.3522 154.114 69.7391 154.038C70.1259 153.961 70.5268 154 70.8912 154.151C71.2556 154.302 71.567 154.557 71.7861 154.885C72.0053 155.213 72.1222 155.598 72.1222 155.992C72.1218 156.521 71.9116 157.028 71.5377 157.401C71.1638 157.775 70.6569 157.985 70.1281 157.985Z" fill="#FF5D24"/>
<path d="M83.7551 157.985C83.3607 157.985 82.9752 157.869 82.6472 157.65C82.3193 157.431 82.0637 157.119 81.9128 156.755C81.7618 156.391 81.7224 155.99 81.7993 155.604C81.8762 155.217 82.0662 154.862 82.3451 154.583C82.6239 154.304 82.9793 154.114 83.3661 154.038C83.7529 153.961 84.1539 154 84.5183 154.151C84.8826 154.302 85.1941 154.557 85.4132 154.885C85.6323 155.213 85.7493 155.598 85.7493 155.992C85.7487 156.521 85.5384 157.027 85.1646 157.401C84.7907 157.775 84.2838 157.985 83.7551 157.985Z" fill="#FF5D24"/>
<path d="M97.3803 157.985C96.9859 157.985 96.6003 157.869 96.2724 157.65C95.9445 157.431 95.6889 157.119 95.538 156.755C95.387 156.391 95.3475 155.99 95.4245 155.604C95.5014 155.217 95.6914 154.862 95.9702 154.583C96.2491 154.304 96.6044 154.114 96.9913 154.038C97.3781 153.961 97.779 154 98.1434 154.151C98.5078 154.302 98.8192 154.557 99.0383 154.885C99.2574 155.213 99.3744 155.598 99.3744 155.992C99.3738 156.521 99.1636 157.027 98.7897 157.401C98.4159 157.775 97.909 157.985 97.3803 157.985Z" fill="#FF5D24"/>
<path d="M111.006 157.985C110.612 157.985 110.226 157.869 109.898 157.65C109.571 157.431 109.315 157.119 109.164 156.755C109.013 156.391 108.974 155.99 109.051 155.604C109.127 155.217 109.317 154.862 109.596 154.583C109.875 154.304 110.23 154.114 110.617 154.038C111.004 153.961 111.405 154 111.769 154.151C112.134 154.302 112.445 154.557 112.664 154.885C112.883 155.213 113 155.598 113 155.992C113 156.521 112.79 157.028 112.416 157.401C112.042 157.775 111.535 157.985 111.006 157.985Z" fill="#FF5D24"/>
<path d="M56.5039 171.608C56.1095 171.608 55.724 171.492 55.396 171.273C55.0681 171.054 54.8125 170.742 54.6616 170.378C54.5107 170.014 54.4712 169.613 54.5481 169.227C54.6251 168.84 54.815 168.485 55.0939 168.206C55.3727 167.927 55.7281 167.738 56.1149 167.661C56.5017 167.584 56.9026 167.623 57.267 167.774C57.6314 167.925 57.9428 168.18 58.1619 168.508C58.3811 168.836 58.498 169.221 58.498 169.615C58.4974 170.144 58.2872 170.65 57.9133 171.024C57.5395 171.398 57.0326 171.608 56.5039 171.608Z" fill="#FF5D24"/>
<path d="M70.1281 171.608C69.7337 171.608 69.3482 171.492 69.0202 171.273C68.6923 171.054 68.4367 170.742 68.2858 170.378C68.1348 170.014 68.0953 169.613 68.1723 169.227C68.2492 168.84 68.4392 168.485 68.718 168.206C68.9969 167.927 69.3522 167.738 69.7391 167.661C70.1259 167.584 70.5268 167.623 70.8912 167.774C71.2556 167.925 71.567 168.18 71.7861 168.508C72.0053 168.836 72.1222 169.221 72.1222 169.615C72.1217 170.144 71.9114 170.65 71.5375 171.024C71.1637 171.398 70.6568 171.608 70.1281 171.608Z" fill="#FF5D24"/>
<path d="M83.7551 171.608C83.3607 171.608 82.9752 171.492 82.6472 171.273C82.3193 171.054 82.0637 170.742 81.9128 170.378C81.7618 170.014 81.7224 169.613 81.7993 169.227C81.8762 168.84 82.0662 168.485 82.3451 168.206C82.6239 167.927 82.9793 167.738 83.3661 167.661C83.7529 167.584 84.1539 167.623 84.5183 167.774C84.8826 167.925 85.1941 168.18 85.4132 168.508C85.6323 168.836 85.7493 169.221 85.7493 169.615C85.7485 170.144 85.5382 170.65 85.1644 171.024C84.7906 171.397 84.2838 171.608 83.7551 171.608Z" fill="#FF5D24"/>
<path d="M97.3803 171.608C96.9859 171.608 96.6003 171.492 96.2724 171.273C95.9445 171.054 95.6889 170.742 95.538 170.378C95.387 170.014 95.3475 169.613 95.4245 169.227C95.5014 168.84 95.6914 168.485 95.9702 168.206C96.2491 167.927 96.6044 167.738 96.9913 167.661C97.3781 167.584 97.779 167.623 98.1434 167.774C98.5078 167.925 98.8192 168.18 99.0383 168.508C99.2574 168.836 99.3744 169.221 99.3744 169.615C99.3736 170.144 99.1633 170.65 98.7895 171.024C98.4157 171.397 97.9089 171.608 97.3803 171.608Z" fill="#FF5D24"/>
<path d="M111.006 171.608C110.612 171.608 110.226 171.492 109.898 171.273C109.571 171.054 109.315 170.742 109.164 170.378C109.013 170.014 108.974 169.613 109.051 169.227C109.127 168.84 109.317 168.485 109.596 168.206C109.875 167.927 110.23 167.738 110.617 167.661C111.004 167.584 111.405 167.623 111.769 167.774C112.134 167.925 112.445 168.18 112.664 168.508C112.883 168.836 113 169.221 113 169.615C113 170.144 112.79 170.65 112.416 171.024C112.042 171.398 111.535 171.608 111.006 171.608Z" fill="#FF5D24"/>
<path d="M56.5039 185.231C56.1095 185.231 55.724 185.114 55.396 184.895C55.0681 184.676 54.8125 184.365 54.6616 184C54.5107 183.636 54.4712 183.235 54.5481 182.849C54.6251 182.462 54.815 182.107 55.0939 181.828C55.3727 181.55 55.7281 181.36 56.1149 181.283C56.5017 181.206 56.9026 181.245 57.267 181.396C57.6314 181.547 57.9428 181.803 58.1619 182.13C58.3811 182.458 58.498 182.843 58.498 183.238C58.4974 183.766 58.2872 184.273 57.9133 184.646C57.5395 185.02 57.0326 185.23 56.5039 185.231Z" fill="#FF5D24"/>
<path d="M70.1281 185.231C69.7337 185.231 69.3482 185.114 69.0202 184.895C68.6923 184.676 68.4367 184.365 68.2858 184C68.1348 183.636 68.0953 183.235 68.1723 182.849C68.2492 182.462 68.4392 182.107 68.718 181.828C68.9969 181.55 69.3522 181.36 69.7391 181.283C70.1259 181.206 70.5268 181.245 70.8912 181.396C71.2556 181.547 71.567 181.803 71.7861 182.13C72.0053 182.458 72.1222 182.843 72.1222 183.238C72.1217 183.766 71.9114 184.273 71.5375 184.646C71.1637 185.02 70.6568 185.23 70.1281 185.231Z" fill="#FF5D24"/>
<path d="M83.7551 185.231C83.3607 185.231 82.9752 185.114 82.6472 184.895C82.3193 184.676 82.0637 184.365 81.9128 184C81.7618 183.636 81.7224 183.235 81.7993 182.849C81.8762 182.462 82.0662 182.107 82.3451 181.828C82.6239 181.55 82.9793 181.36 83.3661 181.283C83.7529 181.206 84.1539 181.245 84.5183 181.396C84.8826 181.547 85.1941 181.803 85.4132 182.13C85.6323 182.458 85.7493 182.843 85.7493 183.238C85.7485 183.766 85.5382 184.273 85.1644 184.646C84.7906 185.02 84.2838 185.23 83.7551 185.231Z" fill="#FF5D24"/>
<path d="M97.3803 185.231C96.9859 185.231 96.6003 185.114 96.2724 184.895C95.9445 184.676 95.6889 184.365 95.538 184C95.387 183.636 95.3475 183.235 95.4245 182.849C95.5014 182.462 95.6914 182.107 95.9702 181.828C96.2491 181.55 96.6044 181.36 96.9913 181.283C97.3781 181.206 97.779 181.245 98.1434 181.396C98.5078 181.547 98.8192 181.803 99.0383 182.13C99.2574 182.458 99.3744 182.843 99.3744 183.238C99.3736 183.766 99.1633 184.273 98.7895 184.646C98.4157 185.02 97.9089 185.23 97.3803 185.231Z" fill="#FF5D24"/>
<path d="M111.006 185.231C110.612 185.231 110.226 185.114 109.898 184.895C109.571 184.676 109.315 184.365 109.164 184C109.013 183.636 108.974 183.235 109.051 182.849C109.127 182.462 109.317 182.107 109.596 181.828C109.875 181.55 110.23 181.36 110.617 181.283C111.004 181.206 111.405 181.245 111.769 181.396C112.134 181.547 112.445 181.803 112.664 182.13C112.883 182.458 113 182.843 113 183.238C113 183.766 112.79 184.273 112.416 184.646C112.042 185.02 111.535 185.23 111.006 185.231Z" fill="#FF5D24"/>
<path d="M56.5039 198.853C56.1095 198.853 55.724 198.736 55.396 198.517C55.0681 198.298 54.8125 197.987 54.6616 197.623C54.5107 197.259 54.4712 196.858 54.5481 196.471C54.6251 196.085 54.815 195.729 55.0939 195.451C55.3727 195.172 55.7281 194.982 56.1149 194.905C56.5017 194.828 56.9026 194.868 57.267 195.019C57.6314 195.17 57.9428 195.425 58.1619 195.753C58.3811 196.08 58.498 196.466 58.498 196.86C58.4976 197.388 58.2874 197.895 57.9135 198.269C57.5397 198.643 57.0327 198.853 56.5039 198.853Z" fill="#FF5D24"/>
<path d="M70.1281 198.853C69.7337 198.853 69.3482 198.736 69.0202 198.517C68.6923 198.298 68.4367 197.987 68.2858 197.623C68.1348 197.259 68.0953 196.858 68.1723 196.471C68.2492 196.085 68.4392 195.729 68.718 195.451C68.9969 195.172 69.3522 194.982 69.7391 194.905C70.1259 194.828 70.5268 194.868 70.8912 195.019C71.2556 195.17 71.567 195.425 71.7861 195.753C72.0053 196.08 72.1222 196.466 72.1222 196.86C72.1218 197.388 71.9116 197.895 71.5377 198.269C71.1638 198.643 70.6569 198.853 70.1281 198.853Z" fill="#FF5D24"/>
<path d="M83.7551 198.853C83.3607 198.853 82.9752 198.736 82.6472 198.517C82.3193 198.298 82.0637 197.987 81.9128 197.623C81.7618 197.259 81.7224 196.858 81.7993 196.471C81.8762 196.085 82.0662 195.729 82.3451 195.451C82.6239 195.172 82.9793 194.982 83.3661 194.905C83.7529 194.828 84.1539 194.868 84.5183 195.019C84.8826 195.17 85.1941 195.425 85.4132 195.753C85.6323 196.08 85.7493 196.466 85.7493 196.86C85.7487 197.388 85.5384 197.895 85.1646 198.269C84.7907 198.642 84.2838 198.853 83.7551 198.853Z" fill="#FF5D24"/>
<path d="M97.3803 198.853C96.9859 198.853 96.6003 198.736 96.2724 198.517C95.9445 198.298 95.6889 197.987 95.538 197.623C95.387 197.259 95.3475 196.858 95.4245 196.471C95.5014 196.085 95.6914 195.729 95.9702 195.451C96.2491 195.172 96.6044 194.982 96.9913 194.905C97.3781 194.828 97.779 194.868 98.1434 195.019C98.5078 195.17 98.8192 195.425 99.0383 195.753C99.2574 196.08 99.3744 196.466 99.3744 196.86C99.3738 197.388 99.1636 197.895 98.7897 198.269C98.4159 198.642 97.909 198.853 97.3803 198.853Z" fill="#FF5D24"/>
<path d="M111.006 198.853C110.612 198.853 110.226 198.736 109.898 198.517C109.571 198.298 109.315 197.987 109.164 197.623C109.013 197.259 108.974 196.858 109.051 196.471C109.127 196.085 109.317 195.729 109.596 195.451C109.875 195.172 110.23 194.982 110.617 194.905C111.004 194.828 111.405 194.868 111.769 195.019C112.134 195.17 112.445 195.425 112.664 195.753C112.883 196.08 113 196.466 113 196.86C113 197.388 112.79 197.895 112.416 198.269C112.042 198.643 111.535 198.853 111.006 198.853Z" fill="#FF5D24"/>
<path d="M56.5039 212.473C56.1095 212.473 55.7239 212.356 55.396 212.137C55.068 211.918 54.8124 211.607 54.6615 211.243C54.5106 210.879 54.4712 210.478 54.5482 210.091C54.6252 209.705 54.8152 209.349 55.0941 209.071C55.3731 208.792 55.7284 208.602 56.1153 208.525C56.5022 208.449 56.9031 208.488 57.2675 208.639C57.6319 208.79 57.9433 209.046 58.1623 209.373C58.3813 209.701 58.4981 210.087 58.498 210.481C58.4974 211.009 58.2872 211.516 57.9133 211.889C57.5394 212.263 57.0325 212.473 56.5039 212.473Z" fill="#FF5D24"/>
<path d="M70.1281 212.473C69.7337 212.473 69.3481 212.356 69.0202 212.137C68.6922 211.918 68.4366 211.607 68.2857 211.243C68.1348 210.879 68.0953 210.478 68.1723 210.091C68.2493 209.705 68.4393 209.349 68.7183 209.071C68.9972 208.792 69.3526 208.602 69.7395 208.525C70.1264 208.449 70.5273 208.488 70.8917 208.639C71.2561 208.79 71.5675 209.046 71.7865 209.373C72.0055 209.701 72.1224 210.087 72.1222 210.481C72.1217 211.009 71.9114 211.516 71.5375 211.889C71.1636 212.263 70.6567 212.473 70.1281 212.473Z" fill="#FF5D24"/>
<path d="M83.7551 212.473C83.3607 212.473 82.9751 212.356 82.6472 212.137C82.3192 211.918 82.0636 211.607 81.9127 211.243C81.7618 210.879 81.7224 210.478 81.7994 210.091C81.8764 209.705 82.0664 209.349 82.3453 209.071C82.6243 208.792 82.9797 208.602 83.3665 208.525C83.7534 208.449 84.1544 208.488 84.5188 208.639C84.8831 208.79 85.1945 209.046 85.4136 209.373C85.6326 209.701 85.7494 210.087 85.7493 210.481C85.7485 211.009 85.5382 211.516 85.1643 211.889C84.7905 212.263 84.2837 212.473 83.7551 212.473Z" fill="#FF5D24"/>
<path d="M97.3803 212.473C96.9859 212.473 96.6003 212.356 96.2723 212.137C95.9444 211.918 95.6888 211.607 95.5379 211.243C95.387 210.879 95.3475 210.478 95.4245 210.091C95.5015 209.705 95.6915 209.349 95.9705 209.071C96.2494 208.792 96.6048 208.602 96.9917 208.525C97.3786 208.449 97.7795 208.488 98.1439 208.639C98.5082 208.79 98.8196 209.046 99.0387 209.373C99.2577 209.701 99.3745 210.087 99.3744 210.481C99.3737 211.009 99.1633 211.516 98.7895 211.889C98.4156 212.263 97.9089 212.473 97.3803 212.473Z" fill="#FF5D24"/>
<path d="M111.006 212.473C110.612 212.473 110.226 212.356 109.898 212.137C109.57 211.918 109.315 211.607 109.164 211.242C109.013 210.878 108.974 210.477 109.051 210.09C109.128 209.704 109.318 209.349 109.597 209.07C109.876 208.791 110.232 208.602 110.619 208.525C111.006 208.449 111.407 208.488 111.771 208.64C112.136 208.791 112.447 209.047 112.666 209.375C112.885 209.703 113.001 210.089 113 210.483C112.999 211.011 112.789 211.517 112.415 211.89C112.041 212.263 111.535 212.473 111.006 212.473Z" fill="#FF5D24"/>
<path d="M56.5039 226.132C56.1095 226.132 55.724 226.016 55.396 225.797C55.0681 225.578 54.8125 225.266 54.6616 224.902C54.5107 224.538 54.4712 224.137 54.5481 223.751C54.6251 223.364 54.815 223.009 55.0939 222.73C55.3727 222.451 55.7281 222.262 56.1149 222.185C56.5017 222.108 56.9026 222.147 57.267 222.298C57.6314 222.449 57.9428 222.704 58.1619 223.032C58.3811 223.36 58.498 223.745 58.498 224.139C58.4976 224.668 58.2874 225.175 57.9135 225.548C57.5397 225.922 57.0327 226.132 56.5039 226.132Z" fill="#FF5D24"/>
<path d="M70.1281 226.132C69.7337 226.132 69.3482 226.016 69.0202 225.797C68.6923 225.578 68.4367 225.266 68.2858 224.902C68.1348 224.538 68.0953 224.137 68.1723 223.751C68.2492 223.364 68.4392 223.009 68.718 222.73C68.9969 222.451 69.3522 222.262 69.7391 222.185C70.1259 222.108 70.5268 222.147 70.8912 222.298C71.2556 222.449 71.567 222.704 71.7861 223.032C72.0053 223.36 72.1222 223.745 72.1222 224.139C72.1218 224.668 71.9116 225.175 71.5377 225.548C71.1638 225.922 70.6569 226.132 70.1281 226.132Z" fill="#FF5D24"/>
<path d="M83.7551 226.132C83.3607 226.132 82.9752 226.016 82.6472 225.797C82.3193 225.578 82.0637 225.266 81.9128 224.902C81.7618 224.538 81.7224 224.137 81.7993 223.751C81.8762 223.364 82.0662 223.009 82.3451 222.73C82.6239 222.451 82.9793 222.262 83.3661 222.185C83.7529 222.108 84.1539 222.147 84.5183 222.298C84.8826 222.449 85.1941 222.704 85.4132 223.032C85.6323 223.36 85.7493 223.745 85.7493 224.139C85.7487 224.668 85.5384 225.174 85.1646 225.548C84.7907 225.922 84.2838 226.132 83.7551 226.132Z" fill="#FF5D24"/>
<path d="M97.3803 226.132C96.9859 226.132 96.6003 226.016 96.2724 225.797C95.9445 225.578 95.6889 225.266 95.538 224.902C95.387 224.538 95.3475 224.137 95.4245 223.751C95.5014 223.364 95.6914 223.009 95.9702 222.73C96.2491 222.451 96.6044 222.262 96.9913 222.185C97.3781 222.108 97.779 222.147 98.1434 222.298C98.5078 222.449 98.8192 222.704 99.0383 223.032C99.2574 223.36 99.3744 223.745 99.3744 224.139C99.3738 224.668 99.1636 225.174 98.7897 225.548C98.4159 225.922 97.909 226.132 97.3803 226.132Z" fill="#FF5D24"/>
<path d="M111.006 226.132C110.612 226.132 110.226 226.016 109.898 225.797C109.571 225.578 109.315 225.266 109.164 224.902C109.013 224.538 108.974 224.137 109.051 223.751C109.127 223.364 109.317 223.009 109.596 222.73C109.875 222.451 110.23 222.262 110.617 222.185C111.004 222.108 111.405 222.147 111.769 222.298C112.134 222.449 112.445 222.704 112.664 223.032C112.883 223.36 113 223.745 113 224.139C113 224.668 112.79 225.175 112.416 225.548C112.042 225.922 111.535 226.132 111.006 226.132Z" fill="#FF5D24"/>
<path d="M56.5039 239.755C56.1095 239.755 55.724 239.638 55.396 239.42C55.0681 239.201 54.8125 238.889 54.6616 238.525C54.5107 238.161 54.4712 237.76 54.5481 237.374C54.6251 236.987 54.815 236.632 55.0939 236.353C55.3727 236.074 55.7281 235.884 56.1149 235.808C56.5017 235.731 56.9026 235.77 57.267 235.921C57.6314 236.072 57.9428 236.327 58.1619 236.655C58.3811 236.983 58.498 237.368 58.498 237.762C58.4974 238.291 58.2872 238.797 57.9133 239.171C57.5395 239.545 57.0326 239.755 56.5039 239.755Z" fill="#FF5D24"/>
<path d="M70.1281 239.755C69.7337 239.755 69.3482 239.638 69.0202 239.42C68.6923 239.201 68.4367 238.889 68.2858 238.525C68.1348 238.161 68.0953 237.76 68.1723 237.374C68.2492 236.987 68.4392 236.632 68.718 236.353C68.9969 236.074 69.3522 235.884 69.7391 235.808C70.1259 235.731 70.5268 235.77 70.8912 235.921C71.2556 236.072 71.567 236.327 71.7861 236.655C72.0053 236.983 72.1222 237.368 72.1222 237.762C72.1217 238.291 71.9114 238.797 71.5375 239.171C71.1637 239.545 70.6568 239.755 70.1281 239.755Z" fill="#FF5D24"/>
<path d="M83.7551 239.755C83.3607 239.755 82.9752 239.638 82.6472 239.42C82.3193 239.201 82.0637 238.889 81.9128 238.525C81.7618 238.161 81.7224 237.76 81.7993 237.374C81.8762 236.987 82.0662 236.632 82.3451 236.353C82.6239 236.074 82.9793 235.884 83.3661 235.808C83.7529 235.731 84.1539 235.77 84.5183 235.921C84.8826 236.072 85.1941 236.327 85.4132 236.655C85.6323 236.983 85.7493 237.368 85.7493 237.762C85.7485 238.291 85.5382 238.797 85.1644 239.171C84.7906 239.544 84.2838 239.755 83.7551 239.755Z" fill="#FF5D24"/>
<path d="M97.3803 239.755C96.9859 239.755 96.6003 239.638 96.2724 239.42C95.9445 239.201 95.6889 238.889 95.538 238.525C95.387 238.161 95.3475 237.76 95.4245 237.374C95.5014 236.987 95.6914 236.632 95.9702 236.353C96.2491 236.074 96.6044 235.884 96.9913 235.808C97.3781 235.731 97.779 235.77 98.1434 235.921C98.5078 236.072 98.8192 236.327 99.0383 236.655C99.2574 236.983 99.3744 237.368 99.3744 237.762C99.3736 238.291 99.1633 238.797 98.7895 239.171C98.4157 239.544 97.9089 239.755 97.3803 239.755Z" fill="#FF5D24"/>
<path d="M111.006 239.755C110.612 239.755 110.226 239.638 109.898 239.42C109.571 239.201 109.315 238.889 109.164 238.525C109.013 238.161 108.974 237.76 109.051 237.374C109.127 236.987 109.317 236.632 109.596 236.353C109.875 236.074 110.23 235.884 110.617 235.808C111.004 235.731 111.405 235.77 111.769 235.921C112.134 236.072 112.445 236.327 112.664 236.655C112.883 236.983 113 237.368 113 237.762C113 238.291 112.79 238.797 112.416 239.171C112.042 239.545 111.535 239.755 111.006 239.755Z" fill="#FF5D24"/>
<path d="M56.5039 253.378C56.1095 253.378 55.724 253.261 55.396 253.042C55.0681 252.823 54.8125 252.512 54.6616 252.147C54.5107 251.783 54.4712 251.382 54.5481 250.996C54.6251 250.609 54.815 250.254 55.0939 249.975C55.3727 249.697 55.7281 249.507 56.1149 249.43C56.5017 249.353 56.9026 249.392 57.267 249.543C57.6314 249.694 57.9428 249.95 58.1619 250.277C58.3811 250.605 58.498 250.99 58.498 251.385C58.4974 251.913 58.2872 252.42 57.9133 252.793C57.5395 253.167 57.0326 253.377 56.5039 253.378Z" fill="#FF5D24"/>
<path d="M70.1281 253.378C69.7337 253.378 69.3482 253.261 69.0202 253.042C68.6923 252.823 68.4367 252.512 68.2858 252.147C68.1348 251.783 68.0953 251.382 68.1723 250.996C68.2492 250.609 68.4392 250.254 68.718 249.975C68.9969 249.697 69.3522 249.507 69.7391 249.43C70.1259 249.353 70.5268 249.392 70.8912 249.543C71.2556 249.694 71.567 249.95 71.7861 250.277C72.0053 250.605 72.1222 250.99 72.1222 251.385C72.1217 251.913 71.9114 252.42 71.5375 252.793C71.1637 253.167 70.6568 253.377 70.1281 253.378Z" fill="#FF5D24"/>
<path d="M83.7551 253.378C83.3607 253.378 82.9752 253.261 82.6472 253.042C82.3193 252.823 82.0637 252.512 81.9128 252.147C81.7618 251.783 81.7224 251.382 81.7993 250.996C81.8762 250.609 82.0662 250.254 82.3451 249.975C82.6239 249.697 82.9793 249.507 83.3661 249.43C83.7529 249.353 84.1539 249.392 84.5183 249.543C84.8826 249.694 85.1941 249.95 85.4132 250.277C85.6323 250.605 85.7493 250.99 85.7493 251.385C85.7485 251.913 85.5382 252.42 85.1644 252.793C84.7906 253.167 84.2838 253.377 83.7551 253.378Z" fill="#FF5D24"/>
<path d="M97.3803 253.378C96.9859 253.378 96.6003 253.261 96.2724 253.042C95.9445 252.823 95.6889 252.512 95.538 252.147C95.387 251.783 95.3475 251.382 95.4245 250.996C95.5014 250.609 95.6914 250.254 95.9702 249.975C96.2491 249.697 96.6044 249.507 96.9913 249.43C97.3781 249.353 97.779 249.392 98.1434 249.543C98.5078 249.694 98.8192 249.95 99.0383 250.277C99.2574 250.605 99.3744 250.99 99.3744 251.385C99.3736 251.913 99.1633 252.42 98.7895 252.793C98.4157 253.167 97.9089 253.377 97.3803 253.378Z" fill="#FF5D24"/>
<path d="M111.006 253.378C110.612 253.378 110.226 253.261 109.898 253.042C109.571 252.823 109.315 252.512 109.164 252.147C109.013 251.783 108.974 251.382 109.051 250.996C109.127 250.609 109.317 250.254 109.596 249.975C109.875 249.697 110.23 249.507 110.617 249.43C111.004 249.353 111.405 249.392 111.769 249.543C112.134 249.694 112.445 249.95 112.664 250.277C112.883 250.605 113 250.99 113 251.385C113 251.913 112.79 252.42 112.416 252.793C112.042 253.167 111.535 253.377 111.006 253.378Z" fill="#FF5D24"/>
<path d="M56.5039 266.999C56.1095 266.999 55.7239 266.882 55.396 266.663C55.068 266.444 54.8124 266.133 54.6615 265.769C54.5106 265.405 54.4712 265.004 54.5482 264.617C54.6252 264.231 54.8152 263.875 55.0941 263.597C55.3731 263.318 55.7284 263.128 56.1153 263.051C56.5022 262.975 56.9031 263.014 57.2675 263.165C57.6319 263.316 57.9433 263.572 58.1623 263.899C58.3813 264.227 58.4981 264.613 58.498 265.007C58.4974 265.535 58.2872 266.042 57.9133 266.415C57.5394 266.789 57.0325 266.999 56.5039 266.999Z" fill="#FF5D24"/>
<path d="M70.1281 266.999C69.7337 266.999 69.3481 266.882 69.0202 266.663C68.6922 266.444 68.4366 266.133 68.2857 265.769C68.1348 265.405 68.0953 265.004 68.1723 264.617C68.2493 264.231 68.4393 263.875 68.7183 263.597C68.9972 263.318 69.3526 263.128 69.7395 263.051C70.1264 262.975 70.5273 263.014 70.8917 263.165C71.2561 263.316 71.5675 263.572 71.7865 263.899C72.0055 264.227 72.1224 264.613 72.1222 265.007C72.1217 265.535 71.9114 266.042 71.5375 266.415C71.1636 266.789 70.6567 266.999 70.1281 266.999Z" fill="#FF5D24"/>
<path d="M83.7551 266.999C83.3607 266.999 82.9751 266.882 82.6472 266.663C82.3192 266.444 82.0636 266.133 81.9127 265.769C81.7618 265.405 81.7224 265.004 81.7994 264.617C81.8764 264.231 82.0664 263.875 82.3453 263.597C82.6243 263.318 82.9797 263.128 83.3665 263.051C83.7534 262.975 84.1544 263.014 84.5188 263.165C84.8831 263.316 85.1945 263.572 85.4136 263.899C85.6326 264.227 85.7494 264.613 85.7493 265.007C85.7485 265.535 85.5382 266.042 85.1643 266.415C84.7905 266.789 84.2837 266.999 83.7551 266.999Z" fill="#FF5D24"/>
<path d="M97.3803 266.999C96.9859 266.999 96.6003 266.882 96.2723 266.663C95.9444 266.444 95.6888 266.133 95.5379 265.769C95.387 265.405 95.3475 265.004 95.4245 264.617C95.5015 264.231 95.6915 263.875 95.9705 263.597C96.2494 263.318 96.6048 263.128 96.9917 263.051C97.3786 262.975 97.7795 263.014 98.1439 263.165C98.5082 263.316 98.8196 263.572 99.0387 263.899C99.2577 264.227 99.3745 264.613 99.3744 265.007C99.3737 265.535 99.1633 266.042 98.7895 266.415C98.4156 266.789 97.9089 266.999 97.3803 266.999Z" fill="#FF5D24"/>
<path d="M111.006 266.999C110.612 266.999 110.226 266.882 109.898 266.663C109.57 266.444 109.315 266.133 109.164 265.769C109.013 265.405 108.974 265.004 109.051 264.617C109.128 264.231 109.318 263.875 109.597 263.597C109.875 263.318 110.231 263.128 110.618 263.051C111.005 262.975 111.406 263.014 111.77 263.165C112.134 263.316 112.446 263.572 112.665 263.899C112.884 264.227 113.001 264.613 113 265.007C113 265.535 112.79 266.042 112.416 266.415C112.042 266.789 111.535 266.999 111.006 266.999Z" fill="#FF5D24"/>
<path d="M1.99303 157.985C1.59857 157.985 1.21289 157.869 0.884772 157.65C0.556654 157.431 0.300844 157.12 0.149697 156.756C-0.00144952 156.392 -0.0411412 155.991 0.0356431 155.604C0.112427 155.217 0.302237 154.862 0.581064 154.583C0.859891 154.304 1.21521 154.114 1.60207 154.037C1.98893 153.96 2.38995 154 2.75441 154.151C3.11887 154.301 3.43039 154.557 3.64957 154.885C3.86875 155.212 3.98574 155.598 3.98574 155.992C3.98537 156.52 3.77535 157.027 3.40176 157.4C3.02818 157.774 2.52155 157.984 1.99303 157.985Z" fill="#FF5D24"/>
<path d="M15.6212 157.985C15.2268 157.985 14.8412 157.869 14.5133 157.65C14.1854 157.431 13.9298 157.119 13.7788 156.755C13.6279 156.391 13.5884 155.99 13.6654 155.604C13.7423 155.217 13.9322 154.862 14.2111 154.583C14.49 154.304 14.8453 154.114 15.2321 154.038C15.619 153.961 16.0199 154 16.3843 154.151C16.7487 154.302 17.0601 154.557 17.2792 154.885C17.4983 155.213 17.6153 155.598 17.6153 155.992C17.6149 156.521 17.4047 157.028 17.0308 157.401C16.6569 157.775 16.1499 157.985 15.6212 157.985Z" fill="#FF5D24"/>
<path d="M29.2441 157.985C28.8497 157.985 28.4642 157.869 28.1362 157.65C27.8083 157.431 27.5527 157.119 27.4018 156.755C27.2508 156.391 27.2113 155.99 27.2883 155.604C27.3652 155.217 27.5552 154.862 27.834 154.583C28.1129 154.304 28.4682 154.114 28.8551 154.038C29.2419 153.961 29.6428 154 30.0072 154.151C30.3716 154.302 30.6831 154.557 30.9022 154.885C31.1213 155.213 31.2382 155.598 31.2382 155.992C31.2379 156.521 31.0276 157.028 30.6538 157.401C30.2799 157.775 29.7729 157.985 29.2441 157.985Z" fill="#FF5D24"/>
<path d="M42.8699 157.985C42.4755 157.985 42.09 157.869 41.762 157.65C41.4341 157.431 41.1785 157.119 41.0276 156.755C40.8767 156.391 40.8372 155.99 40.9141 155.604C40.9911 155.217 41.181 154.862 41.4599 154.583C41.7387 154.304 42.0941 154.114 42.4809 154.038C42.8677 153.961 43.2687 154 43.633 154.151C43.9974 154.302 44.3089 154.557 44.528 154.885C44.7471 155.213 44.864 155.598 44.864 155.992C44.8637 156.521 44.6535 157.028 44.2796 157.401C43.9057 157.775 43.3987 157.985 42.8699 157.985Z" fill="#FF5D24"/>
<path d="M1.99327 171.608C1.59881 171.609 1.21313 171.492 0.885016 171.273C0.556898 171.054 0.301088 170.743 0.149941 170.379C-0.00120538 170.015 -0.040897 169.614 0.0358873 169.227C0.112672 168.841 0.302481 168.485 0.581308 168.207C0.860135 167.928 1.21545 167.738 1.60231 167.661C1.98917 167.584 2.39019 167.623 2.75466 167.774C3.11912 167.925 3.43064 168.18 3.64982 168.508C3.869 168.836 3.98599 169.221 3.98599 169.615C3.98543 170.144 3.77535 170.65 3.4018 171.024C3.02826 171.397 2.52173 171.608 1.99327 171.608Z" fill="#FF5D24"/>
<path d="M15.6212 171.608C15.2268 171.608 14.8412 171.492 14.5133 171.273C14.1854 171.054 13.9298 170.742 13.7788 170.378C13.6279 170.014 13.5884 169.613 13.6654 169.227C13.7423 168.84 13.9322 168.485 14.2111 168.206C14.49 167.927 14.8453 167.738 15.2321 167.661C15.619 167.584 16.0199 167.623 16.3843 167.774C16.7487 167.925 17.0601 168.18 17.2792 168.508C17.4983 168.836 17.6153 169.221 17.6153 169.615C17.6147 170.144 17.4045 170.65 17.0306 171.024C16.6568 171.398 16.1499 171.608 15.6212 171.608Z" fill="#FF5D24"/>
<path d="M29.2441 171.608C28.8497 171.608 28.4642 171.492 28.1362 171.273C27.8083 171.054 27.5527 170.742 27.4018 170.378C27.2508 170.014 27.2113 169.613 27.2883 169.227C27.3652 168.84 27.5552 168.485 27.834 168.206C28.1129 167.927 28.4682 167.738 28.8551 167.661C29.2419 167.584 29.6428 167.623 30.0072 167.774C30.3716 167.925 30.6831 168.18 30.9022 168.508C31.1213 168.836 31.2382 169.221 31.2382 169.615C31.2377 170.144 31.0274 170.65 30.6536 171.024C30.2797 171.398 29.7728 171.608 29.2441 171.608Z" fill="#FF5D24"/>
<path d="M42.8699 171.608C42.4755 171.608 42.09 171.492 41.762 171.273C41.4341 171.054 41.1785 170.742 41.0276 170.378C40.8767 170.014 40.8372 169.613 40.9141 169.227C40.9911 168.84 41.181 168.485 41.4599 168.206C41.7387 167.927 42.0941 167.738 42.4809 167.661C42.8677 167.584 43.2687 167.623 43.633 167.774C43.9974 167.925 44.3089 168.18 44.528 168.508C44.7471 168.836 44.864 169.221 44.864 169.615C44.8635 170.144 44.6532 170.65 44.2794 171.024C43.9055 171.398 43.3986 171.608 42.8699 171.608Z" fill="#FF5D24"/>
<path d="M1.99327 185.231C1.59881 185.231 1.21313 185.114 0.885016 184.896C0.556898 184.677 0.301088 184.366 0.149941 184.001C-0.00120538 183.637 -0.040897 183.236 0.0358873 182.85C0.112672 182.463 0.302481 182.108 0.581308 181.829C0.860135 181.55 1.21545 181.36 1.60231 181.283C1.98917 181.206 2.39019 181.245 2.75466 181.396C3.11912 181.547 3.43064 181.802 3.64982 182.13C3.869 182.458 3.98599 182.843 3.98599 183.238C3.98543 183.766 3.77535 184.272 3.4018 184.646C3.02826 185.019 2.52173 185.23 1.99327 185.231Z" fill="#FF5D24"/>
<path d="M15.6212 185.231C15.2268 185.231 14.8412 185.114 14.5133 184.895C14.1854 184.676 13.9298 184.365 13.7788 184C13.6279 183.636 13.5884 183.235 13.6654 182.849C13.7423 182.462 13.9322 182.107 14.2111 181.828C14.49 181.55 14.8453 181.36 15.2321 181.283C15.619 181.206 16.0199 181.245 16.3843 181.396C16.7487 181.547 17.0601 181.803 17.2792 182.13C17.4983 182.458 17.6153 182.843 17.6153 183.238C17.6147 183.766 17.4045 184.273 17.0306 184.646C16.6568 185.02 16.1499 185.23 15.6212 185.231Z" fill="#FF5D24"/>
<path d="M29.2441 185.231C28.8497 185.231 28.4642 185.114 28.1362 184.895C27.8083 184.676 27.5527 184.365 27.4018 184C27.2508 183.636 27.2113 183.235 27.2883 182.849C27.3652 182.462 27.5552 182.107 27.834 181.828C28.1129 181.55 28.4682 181.36 28.8551 181.283C29.2419 181.206 29.6428 181.245 30.0072 181.396C30.3716 181.547 30.6831 181.803 30.9022 182.13C31.1213 182.458 31.2382 182.843 31.2382 183.238C31.2377 183.766 31.0274 184.273 30.6536 184.646C30.2797 185.02 29.7728 185.23 29.2441 185.231Z" fill="#FF5D24"/>
<path d="M42.8699 185.231C42.4755 185.231 42.09 185.114 41.762 184.895C41.4341 184.676 41.1785 184.365 41.0276 184C40.8767 183.636 40.8372 183.235 40.9141 182.849C40.9911 182.462 41.181 182.107 41.4599 181.828C41.7387 181.55 42.0941 181.36 42.4809 181.283C42.8677 181.206 43.2687 181.245 43.633 181.396C43.9974 181.547 44.3089 181.803 44.528 182.13C44.7471 182.458 44.864 182.843 44.864 183.238C44.8635 183.766 44.6532 184.273 44.2794 184.646C43.9055 185.02 43.3986 185.23 42.8699 185.231Z" fill="#FF5D24"/>
<path d="M1.99327 198.853C1.59881 198.853 1.21313 198.737 0.885016 198.518C0.556898 198.299 0.301088 197.988 0.149941 197.624C-0.00120538 197.26 -0.040897 196.859 0.0358873 196.472C0.112672 196.085 0.302481 195.73 0.581308 195.451C0.860135 195.172 1.21545 194.982 1.60231 194.905C1.98917 194.828 2.39019 194.868 2.75466 195.019C3.11912 195.169 3.43064 195.425 3.64982 195.753C3.869 196.08 3.98599 196.466 3.98599 196.86C3.98561 197.388 3.77559 197.895 3.40201 198.268C3.02842 198.642 2.52179 198.852 1.99327 198.853Z" fill="#FF5D24"/>
<path d="M15.6212 198.853C15.2268 198.853 14.8412 198.736 14.5133 198.517C14.1854 198.298 13.9298 197.987 13.7788 197.623C13.6279 197.259 13.5884 196.858 13.6654 196.471C13.7423 196.085 13.9322 195.729 14.2111 195.451C14.49 195.172 14.8453 194.982 15.2321 194.905C15.619 194.828 16.0199 194.868 16.3843 195.019C16.7487 195.17 17.0601 195.425 17.2792 195.753C17.4983 196.08 17.6153 196.466 17.6153 196.86C17.6149 197.388 17.4047 197.895 17.0308 198.269C16.6569 198.643 16.1499 198.853 15.6212 198.853Z" fill="#FF5D24"/>
<path d="M29.2441 198.853C28.8497 198.853 28.4642 198.736 28.1362 198.517C27.8083 198.298 27.5527 197.987 27.4018 197.623C27.2508 197.259 27.2113 196.858 27.2883 196.471C27.3652 196.085 27.5552 195.729 27.834 195.451C28.1129 195.172 28.4682 194.982 28.8551 194.905C29.2419 194.828 29.6428 194.868 30.0072 195.019C30.3716 195.17 30.6831 195.425 30.9022 195.753C31.1213 196.08 31.2382 196.466 31.2382 196.86C31.2379 197.388 31.0276 197.895 30.6538 198.269C30.2799 198.643 29.7729 198.853 29.2441 198.853Z" fill="#FF5D24"/>
<path d="M42.8699 198.853C42.4755 198.853 42.09 198.736 41.762 198.517C41.4341 198.298 41.1785 197.987 41.0276 197.623C40.8767 197.259 40.8372 196.858 40.9141 196.471C40.9911 196.085 41.181 195.729 41.4599 195.451C41.7387 195.172 42.0941 194.982 42.4809 194.905C42.8677 194.828 43.2687 194.868 43.633 195.019C43.9974 195.17 44.3089 195.425 44.528 195.753C44.7471 196.08 44.864 196.466 44.864 196.86C44.8637 197.388 44.6535 197.895 44.2796 198.269C43.9057 198.643 43.3987 198.853 42.8699 198.853Z" fill="#FF5D24"/>
<path d="M1.99333 212.473C1.59875 212.474 1.21296 212.357 0.884781 212.138C0.556603 211.919 0.300794 211.608 0.149731 211.243C-0.00133232 210.879 -0.0408583 210.478 0.0361548 210.091C0.113168 209.704 0.303258 209.349 0.582367 209.07C0.861476 208.792 1.21706 208.602 1.6041 208.525C1.99115 208.449 2.39226 208.488 2.75667 208.64C3.12108 208.791 3.43241 209.047 3.65125 209.375C3.87009 209.703 3.9866 210.089 3.98604 210.483C3.98492 211.011 3.77457 211.517 3.40107 211.89C3.02757 212.263 2.52136 212.473 1.99333 212.473Z" fill="#FF5D24"/>
<path d="M15.6212 212.473C15.2267 212.473 14.8412 212.356 14.5132 212.137C14.1853 211.918 13.9297 211.607 13.7788 211.243C13.6279 210.879 13.5884 210.478 13.6654 210.091C13.7424 209.705 13.9324 209.349 14.2114 209.071C14.4903 208.792 14.8457 208.602 15.2326 208.525C15.6194 208.449 16.0204 208.488 16.3848 208.639C16.7491 208.79 17.0605 209.046 17.2796 209.373C17.4986 209.701 17.6154 210.087 17.6153 210.481C17.6147 211.009 17.4044 211.516 17.0306 211.889C16.6567 212.263 16.1498 212.473 15.6212 212.473Z" fill="#FF5D24"/>
<path d="M29.2441 212.473C28.8497 212.473 28.4641 212.356 28.1361 212.137C27.8082 211.918 27.5526 211.607 27.4017 211.243C27.2508 210.879 27.2113 210.478 27.2883 210.091C27.3653 209.705 27.5553 209.349 27.8343 209.071C28.1132 208.792 28.4686 208.602 28.8555 208.525C29.2424 208.449 29.6433 208.488 30.0077 208.639C30.3721 208.79 30.6834 209.046 30.9025 209.373C31.1215 209.701 31.2383 210.087 31.2382 210.481C31.2376 211.009 31.0273 211.516 30.6535 211.889C30.2796 212.263 29.7727 212.473 29.2441 212.473Z" fill="#FF5D24"/>
<path d="M42.8699 212.473C42.4755 212.473 42.0899 212.356 41.762 212.137C41.434 211.918 41.1784 211.607 41.0275 211.243C40.8766 210.879 40.8372 210.478 40.9142 210.091C40.9912 209.705 41.1812 209.349 41.4601 209.071C41.7391 208.792 42.0944 208.602 42.4813 208.525C42.8682 208.449 43.2692 208.488 43.6335 208.639C43.9979 208.79 44.3093 209.046 44.5283 209.373C44.7474 209.701 44.8642 210.087 44.864 210.481C44.8635 211.009 44.6532 211.516 44.2793 211.889C43.9055 212.263 43.3986 212.473 42.8699 212.473Z" fill="#FF5D24"/>
<path d="M1.99327 226.132C1.59881 226.133 1.21313 226.016 0.885016 225.797C0.556898 225.578 0.301088 225.267 0.149941 224.903C-0.00120538 224.539 -0.040897 224.138 0.0358873 223.751C0.112672 223.365 0.302481 223.009 0.581308 222.731C0.860135 222.452 1.21545 222.262 1.60231 222.185C1.98917 222.108 2.39019 222.147 2.75466 222.298C3.11912 222.449 3.43064 222.704 3.64982 223.032C3.869 223.36 3.98599 223.745 3.98599 224.139C3.98561 224.668 3.77559 225.174 3.40201 225.548C3.02842 225.921 2.52179 226.132 1.99327 226.132Z" fill="#FF5D24"/>
<path d="M15.6212 226.132C15.2268 226.132 14.8412 226.016 14.5133 225.797C14.1854 225.578 13.9298 225.266 13.7788 224.902C13.6279 224.538 13.5884 224.137 13.6654 223.751C13.7423 223.364 13.9322 223.009 14.2111 222.73C14.49 222.451 14.8453 222.262 15.2321 222.185C15.619 222.108 16.0199 222.147 16.3843 222.298C16.7487 222.449 17.0601 222.704 17.2792 223.032C17.4983 223.36 17.6153 223.745 17.6153 224.139C17.6149 224.668 17.4047 225.175 17.0308 225.548C16.6569 225.922 16.1499 226.132 15.6212 226.132Z" fill="#FF5D24"/>
<path d="M29.2441 226.132C28.8497 226.132 28.4642 226.016 28.1362 225.797C27.8083 225.578 27.5527 225.266 27.4018 224.902C27.2508 224.538 27.2113 224.137 27.2883 223.751C27.3652 223.364 27.5552 223.009 27.834 222.73C28.1129 222.451 28.4682 222.262 28.8551 222.185C29.2419 222.108 29.6428 222.147 30.0072 222.298C30.3716 222.449 30.6831 222.704 30.9022 223.032C31.1213 223.36 31.2382 223.745 31.2382 224.139C31.2379 224.668 31.0276 225.175 30.6538 225.548C30.2799 225.922 29.7729 226.132 29.2441 226.132Z" fill="#FF5D24"/>
<path d="M42.8699 226.132C42.4755 226.132 42.09 226.016 41.762 225.797C41.4341 225.578 41.1785 225.266 41.0276 224.902C40.8767 224.538 40.8372 224.137 40.9141 223.751C40.9911 223.364 41.181 223.009 41.4599 222.73C41.7387 222.451 42.0941 222.262 42.4809 222.185C42.8677 222.108 43.2687 222.147 43.633 222.298C43.9974 222.449 44.3089 222.704 44.528 223.032C44.7471 223.36 44.864 223.745 44.864 224.139C44.8637 224.668 44.6535 225.175 44.2796 225.548C43.9057 225.922 43.3987 226.132 42.8699 226.132Z" fill="#FF5D24"/>
<path d="M1.99327 239.755C1.59881 239.756 1.21313 239.639 0.885016 239.42C0.556898 239.201 0.301088 238.89 0.149941 238.526C-0.00120538 238.162 -0.040897 237.761 0.0358873 237.374C0.112672 236.988 0.302481 236.632 0.581308 236.354C0.860135 236.075 1.21545 235.885 1.60231 235.808C1.98917 235.731 2.39019 235.77 2.75466 235.921C3.11912 236.072 3.43064 236.327 3.64982 236.655C3.869 236.983 3.98599 237.368 3.98599 237.762C3.98543 238.291 3.77535 238.797 3.4018 239.171C3.02826 239.544 2.52173 239.754 1.99327 239.755Z" fill="#FF5D24"/>
<path d="M15.6212 239.755C15.2268 239.755 14.8412 239.638 14.5133 239.42C14.1854 239.201 13.9298 238.889 13.7788 238.525C13.6279 238.161 13.5884 237.76 13.6654 237.374C13.7423 236.987 13.9322 236.632 14.2111 236.353C14.49 236.074 14.8453 235.884 15.2321 235.808C15.619 235.731 16.0199 235.77 16.3843 235.921C16.7487 236.072 17.0601 236.327 17.2792 236.655C17.4983 236.983 17.6153 237.368 17.6153 237.762C17.6147 238.291 17.4045 238.797 17.0306 239.171C16.6568 239.545 16.1499 239.755 15.6212 239.755Z" fill="#FF5D24"/>
<path d="M29.2441 239.755C28.8497 239.755 28.4642 239.638 28.1362 239.42C27.8083 239.201 27.5527 238.889 27.4018 238.525C27.2508 238.161 27.2113 237.76 27.2883 237.374C27.3652 236.987 27.5552 236.632 27.834 236.353C28.1129 236.074 28.4682 235.884 28.8551 235.808C29.2419 235.731 29.6428 235.77 30.0072 235.921C30.3716 236.072 30.6831 236.327 30.9022 236.655C31.1213 236.983 31.2382 237.368 31.2382 237.762C31.2377 238.291 31.0274 238.797 30.6536 239.171C30.2797 239.545 29.7728 239.755 29.2441 239.755Z" fill="#FF5D24"/>
<path d="M42.8699 239.755C42.4755 239.755 42.09 239.638 41.762 239.42C41.4341 239.201 41.1785 238.889 41.0276 238.525C40.8767 238.161 40.8372 237.76 40.9141 237.374C40.9911 236.987 41.181 236.632 41.4599 236.353C41.7387 236.074 42.0941 235.884 42.4809 235.808C42.8677 235.731 43.2687 235.77 43.633 235.921C43.9974 236.072 44.3089 236.327 44.528 236.655C44.7471 236.983 44.864 237.368 44.864 237.762C44.8635 238.291 44.6532 238.797 44.2794 239.171C43.9055 239.545 43.3986 239.755 42.8699 239.755Z" fill="#FF5D24"/>
<path d="M1.99327 253.378C1.59881 253.378 1.21313 253.261 0.885016 253.043C0.556898 252.824 0.301088 252.513 0.149941 252.148C-0.00120538 251.784 -0.040897 251.383 0.0358873 250.997C0.112672 250.61 0.302481 250.255 0.581308 249.976C0.860135 249.697 1.21545 249.507 1.60231 249.43C1.98917 249.353 2.39019 249.392 2.75466 249.543C3.11912 249.694 3.43064 249.949 3.64982 250.277C3.869 250.605 3.98599 250.99 3.98599 251.385C3.98543 251.913 3.77535 252.419 3.4018 252.793C3.02826 253.166 2.52173 253.377 1.99327 253.378Z" fill="#FF5D24"/>
<path d="M15.6212 253.378C15.2268 253.378 14.8412 253.261 14.5133 253.042C14.1854 252.823 13.9298 252.512 13.7788 252.147C13.6279 251.783 13.5884 251.382 13.6654 250.996C13.7423 250.609 13.9322 250.254 14.2111 249.975C14.49 249.697 14.8453 249.507 15.2321 249.43C15.619 249.353 16.0199 249.392 16.3843 249.543C16.7487 249.694 17.0601 249.95 17.2792 250.277C17.4983 250.605 17.6153 250.99 17.6153 251.385C17.6147 251.913 17.4045 252.42 17.0306 252.793C16.6568 253.167 16.1499 253.377 15.6212 253.378Z" fill="#FF5D24"/>
<path d="M29.2441 253.378C28.8497 253.378 28.4642 253.261 28.1362 253.042C27.8083 252.823 27.5527 252.512 27.4018 252.147C27.2508 251.783 27.2113 251.382 27.2883 250.996C27.3652 250.609 27.5552 250.254 27.834 249.975C28.1129 249.697 28.4682 249.507 28.8551 249.43C29.2419 249.353 29.6428 249.392 30.0072 249.543C30.3716 249.694 30.6831 249.95 30.9022 250.277C31.1213 250.605 31.2382 250.99 31.2382 251.385C31.2377 251.913 31.0274 252.42 30.6536 252.793C30.2797 253.167 29.7728 253.377 29.2441 253.378Z" fill="#FF5D24"/>
<path d="M42.8699 253.378C42.4755 253.378 42.09 253.261 41.762 253.042C41.4341 252.823 41.1785 252.512 41.0276 252.147C40.8767 251.783 40.8372 251.382 40.9141 250.996C40.9911 250.609 41.181 250.254 41.4599 249.975C41.7387 249.697 42.0941 249.507 42.4809 249.43C42.8677 249.353 43.2687 249.392 43.633 249.543C43.9974 249.694 44.3089 249.95 44.528 250.277C44.7471 250.605 44.864 250.99 44.864 251.385C44.8635 251.913 44.6532 252.42 44.2794 252.793C43.9055 253.167 43.3986 253.377 42.8699 253.378Z" fill="#FF5D24"/>
<path d="M1.99327 266.999C1.59878 267 1.21307 266.883 0.884942 266.664C0.55681 266.445 0.300999 266.134 0.149873 265.77C-0.00125249 265.406 -0.0409026 265.005 0.0359389 264.618C0.11278 264.231 0.30266 263.876 0.581558 263.597C0.860455 263.318 1.21584 263.128 1.60274 263.051C1.98965 262.975 2.3907 263.014 2.75514 263.165C3.11959 263.316 3.43107 263.571 3.65016 263.899C3.86925 264.227 3.98612 264.613 3.98599 265.007C3.98543 265.535 3.77532 266.041 3.40176 266.415C3.0282 266.788 2.52167 266.999 1.99327 266.999Z" fill="#FF5D24"/>
<path d="M15.6212 266.999C15.2267 266.999 14.8412 266.882 14.5132 266.663C14.1853 266.444 13.9297 266.133 13.7788 265.769C13.6279 265.405 13.5884 265.004 13.6654 264.617C13.7424 264.231 13.9324 263.875 14.2114 263.597C14.4903 263.318 14.8457 263.128 15.2326 263.051C15.6194 262.975 16.0204 263.014 16.3848 263.165C16.7491 263.316 17.0605 263.572 17.2796 263.899C17.4986 264.227 17.6154 264.613 17.6153 265.007C17.6147 265.535 17.4044 266.042 17.0306 266.415C16.6567 266.789 16.1498 266.999 15.6212 266.999Z" fill="#FF5D24"/>
<path d="M29.2441 266.999C28.8497 266.999 28.4641 266.882 28.1361 266.663C27.8082 266.444 27.5526 266.133 27.4017 265.769C27.2508 265.405 27.2113 265.004 27.2883 264.617C27.3653 264.231 27.5553 263.875 27.8343 263.597C28.1132 263.318 28.4686 263.128 28.8555 263.051C29.2424 262.975 29.6433 263.014 30.0077 263.165C30.3721 263.316 30.6834 263.572 30.9025 263.899C31.1215 264.227 31.2383 264.613 31.2382 265.007C31.2376 265.535 31.0273 266.042 30.6535 266.415C30.2796 266.789 29.7727 266.999 29.2441 266.999Z" fill="#FF5D24"/>
<path d="M42.8699 266.999C42.4755 266.999 42.0899 266.882 41.762 266.663C41.434 266.444 41.1784 266.133 41.0275 265.769C40.8766 265.405 40.8372 265.004 40.9142 264.617C40.9912 264.231 41.1812 263.875 41.4601 263.597C41.7391 263.318 42.0944 263.128 42.4813 263.051C42.8682 262.975 43.2692 263.014 43.6335 263.165C43.9979 263.316 44.3093 263.572 44.5283 263.899C44.7474 264.227 44.8642 264.613 44.864 265.007C44.8635 265.535 44.6532 266.042 44.2793 266.415C43.9055 266.789 43.3986 266.999 42.8699 266.999Z" fill="#FF5D24"/>
</g>
<path d="M1088.07 4.79161C1098.79 8.62996 1100.64 22.4618 1094.78 31.0838C1088.25 40.7074 1076.35 43.9101 1065.32 44.0485C1060.15 44.1162 1053.76 44.2976 1049.09 41.7717C1043.79 38.9078 1044.38 32.9681 1048.88 29.6463C1058.14 22.8073 1071.08 34.5128 1076.84 41.016C1084.21 49.3378 1088.47 60.7241 1084.98 71.7055C1081.47 82.7707 1070.56 87.9513 1059.5 87.4264C1054.44 87.187 1045.9 85.9958 1044.15 80.2711C1043.45 77.9435 1044.11 75.1042 1046.73 74.393C1049.1 73.7498 1051.8 75.3319 1053.68 76.6061C1057.64 79.2982 1060.92 83.2977 1064.05 86.8812C1067.51 90.8419 1070.73 95.0404 1073.25 99.6677C1078.94 110.108 1079.34 122.361 1070.71 131.413C1061.49 141.085 1047.49 142.649 1034.95 140.308L1035.79 143.6C1040.14 139.691 1044.49 135.782 1048.84 131.874L1046.04 129.022C1041.42 133.993 1036.39 138.566 1031 142.693C1029.99 143.463 1030.32 145.321 1031.38 145.855L1048.7 154.588C1051 155.75 1053.08 152.29 1050.76 151.121L1033.43 142.399L1033.81 145.561C1039.21 141.436 1044.23 136.857 1048.84 131.874C1050.59 129.985 1047.96 127.284 1046.04 129.023L1033.03 140.799C1032 141.736 1032.41 143.826 1033.87 144.092C1047.74 146.629 1063.19 144.854 1073.39 134.144C1082.65 124.424 1083.23 111.159 1077.47 99.5157C1074.41 93.3361 1070.05 87.8277 1065.44 82.7291C1061.46 78.3092 1057.15 73.1608 1051.34 71.1452C1046.51 69.4732 1041.06 71.5819 1040.21 77.0138C1039.26 83.0895 1044.09 87.4565 1049.34 89.33C1061.55 93.6891 1077.44 90.905 1085.13 79.8038C1093.04 68.3925 1090.4 53.1202 1082.72 42.4265C1076.27 33.4415 1062.03 19.8758 1049.64 24.9359C1045.04 26.814 1041.1 31.4767 1041.41 36.6442C1041.77 42.8018 1047.69 45.9114 1053.1 46.9197C1067.63 49.6286 1086.29 47.3747 1095.97 34.9947C1100.07 29.7361 1102.1 22.9606 1100.39 16.4063C1098.8 10.3108 1094.55 5.34885 1088.44 3.51617C1087.62 3.26783 1087.28 4.50812 1088.08 4.79374L1088.07 4.79161Z" fill="#FF5D24"/>
<defs>
<clipPath id="clip0_734:17">
<rect width="113" height="113" fill="white" transform="translate(0 154)"/>
</clipPath>
</defs>
</svg>
